<svg width="1440" height="1024" viewBox="0 0 1440 1024" fill="none" xmlns="http://www.w3.org/2000/svg">
<g clip-path="url(#clip0_2_6)">
<rect width="1440" height="1024" fill="white"/>
<g filter="url(#filter0_f_2_6)">
<rect x="141" y="161" width="1158" height="702" fill="#FFEAFA"/>
</g>
<g filter="url(#filter1_f_2_6)">
<path d="M1239.85 740L1247.28 787.644H1232.42L1239.85 740Z" fill="white"/>
<path d="M1285.35 785.85L1237.71 793.276L1237.71 778.424L1285.35 785.85Z" fill="white"/>
<path d="M1239.5 831.35L1232.07 783.706H1246.93L1239.5 831.35Z" fill="white"/>
<path d="M1194 785.5L1241.64 778.074L1241.64 792.926L1194 785.5Z" fill="white"/>
<circle cx="1239.76" cy="785.762" r="13.9125" fill="white"/>
</g>
<g filter="url(#filter2_f_2_6)">
<rect x="320" y="282" width="794" height="438" fill="#FFE4F9"/>
</g>
<g filter="url(#filter3_f_2_6)">
<path d="M1173.77 623.104C1167.88 615.218 1160.5 608.565 1152.04 603.525C1143.58 598.486 1134.21 595.158 1124.46 593.732C1114.72 592.306 1104.79 592.81 1095.24 595.215C1085.69 597.62 1076.71 601.879 1068.81 607.748L1052.42 619.923L1040.21 603.564C1028.32 587.642 1010.59 577.079 990.904 574.2C971.221 571.32 951.202 576.359 935.253 588.209C919.303 600.058 908.728 617.748 905.855 637.385C902.982 657.023 908.046 677 919.933 692.922L932.146 709.281L1021.78 829.35L1142.06 739.992L1158.45 727.817C1166.35 721.951 1173.01 714.589 1178.06 706.151C1183.1 697.714 1186.43 688.366 1187.85 678.642C1189.28 668.917 1188.76 659.008 1186.35 649.478C1183.93 639.949 1179.66 630.987 1173.77 623.104Z" fill="#FFEAFA"/>
<path d="M1173.77 623.104C1167.88 615.218 1160.5 608.565 1152.04 603.525C1143.58 598.486 1134.21 595.158 1124.46 593.732C1114.72 592.306 1104.79 592.81 1095.24 595.215C1085.69 597.62 1076.71 601.879 1068.81 607.748L1052.42 619.923L1040.21 603.564C1028.32 587.642 1010.59 577.079 990.904 574.2C971.221 571.32 951.202 576.359 935.253 588.209C919.303 600.058 908.728 617.748 905.855 637.385C902.982 657.023 908.046 677 919.933 692.922L932.146 709.281L1021.78 829.35L1142.06 739.992L1158.45 727.817C1166.35 721.951 1173.01 714.589 1178.06 706.151C1183.1 697.714 1186.43 688.366 1187.85 678.642C1189.28 668.917 1188.76 659.008 1186.35 649.478C1183.93 639.949 1179.66 630.987 1173.77 623.104Z" stroke="white" stroke-width="35.7616" stroke-linecap="round" stroke-linejoin="round"/>
</g>
<g filter="url(#filter4_f_2_6)">
<path d="M1273.73 424.43C1270.42 420.736 1266.41 417.729 1261.94 415.58C1257.47 413.431 1252.61 412.182 1247.65 411.905C1242.7 411.628 1237.73 412.328 1233.05 413.965C1228.36 415.603 1224.05 418.145 1220.35 421.448L1212.67 428.298L1205.8 420.635C1199.11 413.177 1189.73 408.672 1179.72 408.113C1169.71 407.553 1159.89 410.985 1152.41 417.652C1144.94 424.319 1140.43 433.676 1139.87 443.664C1139.31 453.653 1142.75 463.454 1149.44 470.912L1156.31 478.575L1206.71 534.819L1263.08 484.541L1270.75 477.691C1274.46 474.39 1277.47 470.394 1279.62 465.931C1281.78 461.468 1283.03 456.625 1283.3 451.679C1283.58 446.733 1282.88 441.78 1281.23 437.105C1279.59 432.43 1277.04 428.123 1273.73 424.43Z" fill="#FFEAFA"/>
<path d="M1273.73 424.43C1270.42 420.736 1266.41 417.729 1261.94 415.58C1257.47 413.431 1252.61 412.182 1247.65 411.905C1242.7 411.628 1237.73 412.328 1233.05 413.965C1228.36 415.603 1224.05 418.145 1220.35 421.448L1212.67 428.298L1205.8 420.635C1199.11 413.177 1189.73 408.672 1179.72 408.113C1169.71 407.553 1159.89 410.985 1152.41 417.652C1144.94 424.319 1140.43 433.676 1139.87 443.664C1139.31 453.653 1142.75 463.454 1149.44 470.912L1156.31 478.575L1206.71 534.819L1263.08 484.541L1270.75 477.691C1274.46 474.39 1277.47 470.394 1279.62 465.931C1281.78 461.468 1283.03 456.625 1283.3 451.679C1283.58 446.733 1282.88 441.78 1281.23 437.105C1279.59 432.43 1277.04 428.123 1273.73 424.43Z" stroke="white" stroke-width="30" stroke-linecap="round" stroke-linejoin="round"/>
</g>
<g filter="url(#filter5_f_2_6)">
<path d="M987.5 381L998.109 449.062H976.891L987.5 381Z" fill="white"/>
<path d="M1052.5 446.5L984.437 457.109L984.437 435.891L1052.5 446.5Z" fill="white"/>
<path d="M987 511.5L976.391 443.438H997.609L987 511.5Z" fill="white"/>
<path d="M922 446L990.063 435.391L990.063 456.609L922 446Z" fill="white"/>
<circle cx="987.375" cy="446.375" r="19.875" fill="white"/>
</g>
</g>
<defs>
<filter id="filter0_f_2_6" x="-59" y="-39" width="1558" height="1102" filterUnits="userSpaceOnUse" color-interpolation-filters="sRGB">
<feFlood flood-opacity="0" result="BackgroundImageFix"/>
<feBlend mode="normal" in="SourceGraphic" in2="BackgroundImageFix" result="shape"/>
<feGaussianBlur stdDeviation="100" result="effect1_foregroundBlur_2_6"/>
</filter>
<filter id="filter1_f_2_6" x="1185.25" y="731.25" width="108.85" height="108.85" filterUnits="userSpaceOnUse" color-interpolation-filters="sRGB">
<feFlood flood-opacity="0" result="BackgroundImageFix"/>
<feBlend mode="normal" in="SourceGraphic" in2="BackgroundImageFix" result="shape"/>
<feGaussianBlur stdDeviation="4.375" result="effect1_foregroundBlur_2_6"/>
</filter>
<filter id="filter2_f_2_6" x="120" y="82" width="1194" height="838" filterUnits="userSpaceOnUse" color-interpolation-filters="sRGB">
<feFlood flood-opacity="0" result="BackgroundImageFix"/>
<feBlend mode="normal" in="SourceGraphic" in2="BackgroundImageFix" result="shape"/>
<feGaussianBlur stdDeviation="100" result="effect1_foregroundBlur_2_6"/>
</filter>
<filter id="filter3_f_2_6" x="857.188" y="525.526" width="379.333" height="351.705" filterUnits="userSpaceOnUse" color-interpolation-filters="sRGB">
<feFlood flood-opacity="0" result="BackgroundImageFix"/>
<feBlend mode="normal" in="SourceGraphic" in2="BackgroundImageFix" result="shape"/>
<feGaussianBlur stdDeviation="15" result="effect1_foregroundBlur_2_6"/>
</filter>
<filter id="filter4_f_2_6" x="1094.81" y="363.054" width="233.55" height="216.765" filterUnits="userSpaceOnUse" color-interpolation-filters="sRGB">
<feFlood flood-opacity="0" result="BackgroundImageFix"/>
<feBlend mode="normal" in="SourceGraphic" in2="BackgroundImageFix" result="shape"/>
<feGaussianBlur stdDeviation="15" result="effect1_foregroundBlur_2_6"/>
</filter>
<filter id="filter5_f_2_6" x="909.5" y="368.5" width="155.5" height="155.5" filterUnits="userSpaceOnUse" color-interpolation-filters="sRGB">
<feFlood flood-opacity="0" result="BackgroundImageFix"/>
<feBlend mode="normal" in="SourceGraphic" in2="BackgroundImageFix" result="shape"/>
<feGaussianBlur stdDeviation="6.25" result="effect1_foregroundBlur_2_6"/>
</filter>
<clipPath id="clip0_2_6">
<rect width="1440" height="1024" fill="white"/>
</clipPath>
</defs>
</svg>
