<svg width="152" height="152" viewBox="0 0 152 152" fill="none" xmlns="http://www.w3.org/2000/svg">
<path d="M57 80.3725C63.6459 79.1066 69.2054 74.794 73 69.3169C76.4275 64.3697 79.6959 55.0974 74.3056 50.3725C68.2657 45.0782 63.6431 53.0626 62.0556 58.178C60.7944 62.2416 59.9142 67.3098 61.5556 71.4003C63.3407 75.8491 68.3367 77.0947 72.6667 77.0947C81.5265 77.0947 91.4539 70.8441 94.3333 62.2058C95.6471 58.2646 95.5962 53.8757 93.3611 50.2891C91.8133 47.8055 89.8269 45.3127 86.7222 45.0253C82.8106 44.6631 79.6667 48.2725 77.375 50.9419C72.586 56.5203 68.847 63.9185 66.2917 70.7753C63.9459 77.0699 61.8019 84.018 62.3056 90.8169C62.4776 93.1393 63.3078 95.384 64.8611 97.1503C66.5393 99.0585 68.933 99.6277 71.25 100.372" stroke="#1F1F1D" stroke-width="3" stroke-linecap="round"/>
<path d="M76.625 87.25C76.8937 88.4144 78.7701 88.6886 79.75 88.7431C81.2408 88.8259 82.3286 88.6088 82.6806 87C82.9762 85.6486 82.469 84.5057 81.3472 83.7222C80.2602 82.963 78.7932 82.8466 77.9028 83.9306C76.3945 85.7667 76.1155 88.8013 76.0139 91.0625C75.8319 95.1117 76.4153 99.0902 76.6875 103.118C76.788 104.605 77.0639 106.917 75.25 107.5C73.3892 108.098 71.2483 106.748 70 105.5" stroke="#1F1F1D" stroke-width="3" stroke-linecap="round"/>
</svg>
