<svg width="152" height="152" viewBox="0 0 152 152" fill="none" xmlns="http://www.w3.org/2000/svg">
<rect width="152" height="152" rx="32" fill="black"/>
<path d="M44 84.7138C56.6984 82.2905 67.3208 74.0349 74.5711 63.5501C81.12 54.0796 87.365 36.3295 77.0656 27.2846C65.5252 17.1498 56.693 32.4342 53.6596 42.2268C51.25 50.0058 49.5681 59.7078 52.7043 67.5382C56.1152 76.0546 65.6609 78.4392 73.9342 78.4392C90.8627 78.4392 109.831 66.4736 115.333 49.9372C117.843 42.3926 117.746 33.9909 113.475 27.1251C110.518 22.3706 106.722 17.5987 100.79 17.0484C93.3162 16.355 87.3092 23.2645 82.9304 28.3747C73.7801 39.0534 66.6359 53.2159 61.7535 66.3418C57.2714 78.3916 53.175 91.6925 54.1373 104.708C54.466 109.154 56.0522 113.45 59.0202 116.832C62.2267 120.485 66.8004 121.574 71.2274 123" stroke="white" stroke-width="7" stroke-linecap="round"/>
<path d="M81.4575 97.723C81.9627 99.9081 85.4911 100.423 87.3336 100.525C90.1369 100.68 92.1824 100.273 92.8442 97.2538C93.4001 94.7176 92.4464 92.5728 90.337 91.1025C88.293 89.6777 85.5346 89.4591 83.8602 91.4935C81.0241 94.9393 80.4995 100.634 80.3084 104.878C79.9662 112.477 81.0632 119.943 81.575 127.502C81.7639 130.292 82.2827 134.631 78.872 135.726C75.373 136.848 71.3473 134.315 69 131.972" stroke="white" stroke-width="7" stroke-linecap="round"/>
</svg>
