<svg width="152" height="152" viewBox="0 0 152 152" fill="none" xmlns="http://www.w3.org/2000/svg">
<rect width="152" height="152" rx="76" fill="#FEFEFE"/>
<path d="M44 84.4093C55.1328 82.2832 64.4456 75.0401 70.8021 65.8411C76.5435 57.5321 82.0186 41.9589 72.989 34.0233C62.8714 25.1314 55.1281 38.5414 52.4687 47.133C50.3562 53.9579 48.8816 62.4701 51.6311 69.3401C54.6216 76.812 62.9904 78.9042 70.2437 78.9042C85.0851 78.9042 101.715 68.406 106.538 53.8978C108.739 47.2784 108.654 39.9071 104.91 33.8833C102.317 29.712 98.9893 25.5252 93.7886 25.0424C87.2361 24.4341 81.9697 30.4962 78.1308 34.9797C70.1086 44.3487 63.8452 56.7743 59.5647 68.2904C55.6352 78.8624 52.0439 90.5321 52.8875 101.951C53.1757 105.852 54.5663 109.622 57.1684 112.588C59.9796 115.793 63.9894 116.749 67.8706 118" stroke="#2E2E2E" stroke-width="5" stroke-linecap="round"/>
<path d="M76.9003 95.7156C77.3424 97.6158 80.4297 98.0633 82.0419 98.1521C84.4948 98.2873 86.2846 97.9331 86.8637 95.3077C87.3501 93.1023 86.5156 91.2372 84.6699 89.9587C82.8813 88.7198 80.4677 88.5297 79.0027 90.2987C76.5211 93.295 76.062 98.2471 75.8948 101.937C75.5954 108.545 76.5553 115.037 77.0031 121.611C77.1684 124.037 77.6224 127.81 74.638 128.761C71.5764 129.737 68.0539 127.535 66 125.498" stroke="#2E2E2E" stroke-width="5" stroke-linecap="round"/>
</svg>
